<svg width="190" height="224" viewBox="0 0 190 224" fill="none" xmlns="http://www.w3.org/2000/svg">
<path d="M26.2182 184.752C25.9756 184.509 25.5249 184.18 24.8662 183.764C24.2422 183.348 23.4622 182.949 22.5262 182.568C21.6249 182.152 20.6369 181.805 19.5622 181.528C18.4876 181.251 17.3956 181.112 16.2862 181.112C14.3102 181.112 12.8369 181.476 11.8662 182.204C10.8956 182.932 10.4102 183.955 10.4102 185.272C10.4102 186.035 10.5836 186.676 10.9302 187.196C11.3116 187.681 11.8489 188.115 12.5422 188.496C13.2356 188.877 14.1022 189.224 15.1422 189.536C16.2169 189.848 17.4476 190.177 18.8342 190.524C20.6369 191.009 22.2662 191.529 23.7222 192.084C25.2129 192.639 26.4609 193.332 27.4662 194.164C28.5062 194.996 29.3036 196.001 29.8582 197.18C30.4129 198.324 30.6902 199.745 30.6902 201.444C30.6902 203.42 30.3089 205.119 29.5462 206.54C28.8182 207.927 27.8129 209.053 26.5302 209.92C25.2822 210.787 23.8262 211.428 22.1622 211.844C20.5329 212.225 18.8169 212.416 17.0142 212.416C14.2409 212.416 11.5022 212 8.79822 211.168C6.09422 210.336 3.66756 209.157 1.51822 207.632L4.69022 201.444C5.00222 201.756 5.55689 202.172 6.35422 202.692C7.18622 203.177 8.15689 203.68 9.26622 204.2C10.3756 204.685 11.6062 205.101 12.9582 205.448C14.3102 205.795 15.6969 205.968 17.1182 205.968C21.0702 205.968 23.0462 204.703 23.0462 202.172C23.0462 201.375 22.8209 200.699 22.3702 200.144C21.9196 199.589 21.2782 199.104 20.4462 198.688C19.6142 198.272 18.6089 197.891 17.4302 197.544C16.2516 197.197 14.9342 196.816 13.4782 196.4C11.7102 195.915 10.1676 195.395 8.85022 194.84C7.56756 194.251 6.49289 193.575 5.62622 192.812C4.75956 192.015 4.10089 191.113 3.65022 190.108C3.23422 189.068 3.02622 187.837 3.02622 186.416C3.02622 184.544 3.37289 182.88 4.06622 181.424C4.75956 179.968 5.71289 178.755 6.92622 177.784C8.17422 176.813 9.61289 176.085 11.2422 175.6C12.8716 175.08 14.6222 174.82 16.4942 174.82C19.0942 174.82 21.4862 175.236 23.6702 176.068C25.8542 176.865 27.7609 177.819 29.3902 178.928L26.2182 184.752ZM60.2408 212H53.2728V196.712C53.2728 194.563 52.8742 192.985 52.0768 191.98C51.2795 190.94 50.1528 190.42 48.6968 190.42C48.0728 190.42 47.4142 190.559 46.7208 190.836C46.0275 191.113 45.3688 191.512 44.7448 192.032C44.1208 192.517 43.5488 193.107 43.0288 193.8C42.5088 194.493 42.1275 195.256 41.8848 196.088V212H34.9168V174.04H41.8848V189.796C42.8902 188.028 44.2422 186.676 45.9408 185.74C47.6742 184.769 49.5808 184.284 51.6608 184.284C53.4288 184.284 54.8675 184.596 55.9768 185.22C57.0862 185.809 57.9528 186.607 58.5768 187.612C59.2008 188.617 59.6342 189.761 59.8768 191.044C60.1195 192.327 60.2408 193.644 60.2408 194.996V212ZM78.3637 212.52C76.145 212.52 74.1517 212.139 72.3837 211.376C70.6157 210.613 69.1077 209.591 67.8597 208.308C66.6463 206.991 65.7103 205.483 65.0517 203.784C64.393 202.085 64.0637 200.3 64.0637 198.428C64.0637 196.521 64.393 194.719 65.0517 193.02C65.7103 191.321 66.6463 189.831 67.8597 188.548C69.1077 187.231 70.6157 186.191 72.3837 185.428C74.1517 184.665 76.145 184.284 78.3637 184.284C80.5823 184.284 82.5583 184.665 84.2917 185.428C86.0597 186.191 87.5503 187.231 88.7637 188.548C90.0117 189.831 90.965 191.321 91.6237 193.02C92.2823 194.719 92.6117 196.521 92.6117 198.428C92.6117 200.3 92.2823 202.085 91.6237 203.784C90.965 205.483 90.029 206.991 88.8157 208.308C87.6023 209.591 86.1117 210.613 84.3437 211.376C82.5757 212.139 80.5823 212.52 78.3637 212.52ZM71.2397 198.428C71.2397 199.641 71.413 200.751 71.7597 201.756C72.141 202.727 72.6437 203.576 73.2677 204.304C73.9263 205.032 74.689 205.604 75.5557 206.02C76.4223 206.401 77.3583 206.592 78.3637 206.592C79.369 206.592 80.305 206.401 81.1717 206.02C82.0383 205.604 82.7837 205.032 83.4077 204.304C84.0663 203.576 84.569 202.709 84.9157 201.704C85.297 200.699 85.4877 199.589 85.4877 198.376C85.4877 197.197 85.297 196.105 84.9157 195.1C84.569 194.095 84.0663 193.228 83.4077 192.5C82.7837 191.772 82.0383 191.217 81.1717 190.836C80.305 190.42 79.369 190.212 78.3637 190.212C77.3583 190.212 76.4223 190.42 75.5557 190.836C74.689 191.252 73.9263 191.824 73.2677 192.552C72.6437 193.28 72.141 194.147 71.7597 195.152C71.413 196.157 71.2397 197.249 71.2397 198.428ZM113.123 212.52C110.973 212.52 109.101 212.052 107.507 211.116C105.912 210.145 104.664 208.845 103.763 207.216V223.076H96.7948V184.752H102.879V189.432C103.884 187.837 105.184 186.589 106.779 185.688C108.373 184.752 110.211 184.284 112.291 184.284C114.128 184.284 115.827 184.665 117.387 185.428C118.947 186.156 120.281 187.161 121.391 188.444C122.535 189.692 123.419 191.183 124.043 192.916C124.701 194.615 125.031 196.417 125.031 198.324C125.031 200.3 124.736 202.155 124.147 203.888C123.557 205.621 122.725 207.129 121.651 208.412C120.611 209.695 119.363 210.7 117.907 211.428C116.451 212.156 114.856 212.52 113.123 212.52ZM110.783 206.592C111.823 206.592 112.776 206.367 113.643 205.916C114.544 205.465 115.307 204.859 115.931 204.096C116.555 203.333 117.04 202.449 117.387 201.444C117.733 200.439 117.907 199.399 117.907 198.324C117.907 197.18 117.716 196.123 117.335 195.152C116.953 194.147 116.416 193.28 115.723 192.552C115.064 191.824 114.267 191.252 113.331 190.836C112.429 190.42 111.441 190.212 110.367 190.212C109.708 190.212 109.032 190.333 108.339 190.576C107.645 190.784 107.004 191.096 106.415 191.512C105.825 191.928 105.288 192.413 104.803 192.968C104.352 193.523 104.005 194.129 103.763 194.788V201.184C104.387 202.744 105.34 204.044 106.623 205.084C107.905 206.089 109.292 206.592 110.783 206.592ZM145.56 212.52C143.411 212.52 141.539 212.052 139.944 211.116C138.349 210.145 137.101 208.845 136.2 207.216V223.076H129.232V184.752H135.316V189.432C136.321 187.837 137.621 186.589 139.216 185.688C140.811 184.752 142.648 184.284 144.728 184.284C146.565 184.284 148.264 184.665 149.824 185.428C151.384 186.156 152.719 187.161 153.828 188.444C154.972 189.692 155.856 191.183 156.48 192.916C157.139 194.615 157.468 196.417 157.468 198.324C157.468 200.3 157.173 202.155 156.584 203.888C155.995 205.621 155.163 207.129 154.088 208.412C153.048 209.695 151.8 210.7 150.344 211.428C148.888 212.156 147.293 212.52 145.56 212.52ZM143.22 206.592C144.26 206.592 145.213 206.367 146.08 205.916C146.981 205.465 147.744 204.859 148.368 204.096C148.992 203.333 149.477 202.449 149.824 201.444C150.171 200.439 150.344 199.399 150.344 198.324C150.344 197.18 150.153 196.123 149.772 195.152C149.391 194.147 148.853 193.28 148.16 192.552C147.501 191.824 146.704 191.252 145.768 190.836C144.867 190.42 143.879 190.212 142.804 190.212C142.145 190.212 141.469 190.333 140.776 190.576C140.083 190.784 139.441 191.096 138.852 191.512C138.263 191.928 137.725 192.413 137.24 192.968C136.789 193.523 136.443 194.129 136.2 194.788V201.184C136.824 202.744 137.777 204.044 139.06 205.084C140.343 206.089 141.729 206.592 143.22 206.592ZM174.305 212.52C172.121 212.52 170.145 212.156 168.377 211.428C166.609 210.665 165.101 209.643 163.853 208.36C162.605 207.077 161.634 205.587 160.941 203.888C160.282 202.189 159.953 200.404 159.953 198.532C159.953 196.591 160.282 194.771 160.941 193.072C161.6 191.339 162.553 189.831 163.801 188.548C165.049 187.231 166.557 186.191 168.325 185.428C170.128 184.665 172.138 184.284 174.357 184.284C176.576 184.284 178.552 184.665 180.285 185.428C182.053 186.191 183.544 187.213 184.757 188.496C186.005 189.779 186.941 191.269 187.565 192.968C188.224 194.667 188.553 196.435 188.553 198.272C188.553 198.723 188.536 199.156 188.501 199.572C188.501 199.988 188.466 200.335 188.397 200.612H167.337C167.441 201.687 167.701 202.64 168.117 203.472C168.533 204.304 169.07 205.015 169.729 205.604C170.388 206.193 171.133 206.644 171.965 206.956C172.797 207.268 173.664 207.424 174.565 207.424C175.952 207.424 177.252 207.095 178.465 206.436C179.713 205.743 180.562 204.841 181.013 203.732L186.993 205.396C185.988 207.476 184.376 209.192 182.157 210.544C179.973 211.861 177.356 212.52 174.305 212.52ZM181.377 196.088C181.204 194.043 180.441 192.413 179.089 191.2C177.772 189.952 176.16 189.328 174.253 189.328C173.317 189.328 172.433 189.501 171.601 189.848C170.804 190.16 170.093 190.611 169.469 191.2C168.845 191.789 168.325 192.5 167.909 193.332C167.528 194.164 167.302 195.083 167.233 196.088H181.377Z" fill="#202020"/>
<g filter="url(#filter0_d_12034_391)">
<path d="M95 139C132.003 139 162 109.003 162 72C162 34.9969 132.003 5 95 5C57.9969 5 28 34.9969 28 72C28 109.003 57.9969 139 95 139Z" fill="white"/>
</g>
<path d="M128.486 114.231L54 115.069L67.1998 42.1273L119.686 45.1258L128.486 114.231Z" fill="#8BC6FF"/>
<path d="M135.4 118H65.8379L66.2287 114.931L128.486 114.231L119.991 47.5261L128.486 46.6151L135.4 118Z" fill="#0051FF" fill-opacity="0.6"/>
<path d="M66.229 114.932L74.1874 52.4361L119.991 47.5264L128.486 114.231L66.229 114.932Z" fill="#0051FF" fill-opacity="0.6"/>
<path d="M111.353 40.1609H106.902C106.902 34.8052 102.544 30.4487 97.1852 30.4487C91.8275 30.4487 87.468 34.8052 87.468 40.1609H83.0173C83.0173 32.3528 89.3732 26 97.1852 26C104.997 26 111.353 32.3528 111.353 40.1609Z" fill="#5982DA"/>
<defs>
<filter id="filter0_d_12034_391" x="20" y="0" width="150" height="150" filterUnits="userSpaceOnUse" color-interpolation-filters="sRGB">
<feFlood flood-opacity="0" result="BackgroundImageFix"/>
<feColorMatrix in="SourceAlpha" type="matrix" values="0 0 0 0 0 0 0 0 0 0 0 0 0 0 0 0 0 0 127 0" result="hardAlpha"/>
<feOffset dy="3"/>
<feGaussianBlur stdDeviation="4"/>
<feColorMatrix type="matrix" values="0 0 0 0 0 0 0 0 0 0 0 0 0 0 0 0 0 0 0.160784 0"/>
<feBlend mode="normal" in2="BackgroundImageFix" result="effect1_dropShadow_12034_391"/>
<feBlend mode="normal" in="SourceGraphic" in2="effect1_dropShadow_12034_391" result="shape"/>
</filter>
</defs>
</svg>
