<svg width="31" height="28" viewBox="0 0 31 28" fill="none" xmlns="http://www.w3.org/2000/svg">
<path fill-rule="evenodd" clip-rule="evenodd" d="M9.59384 23.1237C10.1388 23.1237 10.5817 23.5238 10.5817 24.0162C10.5817 24.5085 10.1388 24.9075 9.59384 24.9075C9.04893 24.9075 8.60732 24.5085 8.60732 24.0162C8.60732 23.5238 9.04893 23.1237 9.59384 23.1237Z" stroke="#393F42" stroke-width="1.5" stroke-linecap="round" stroke-linejoin="round"/>
<path fill-rule="evenodd" clip-rule="evenodd" d="M24.1236 23.1237C24.6685 23.1237 25.1115 23.5238 25.1115 24.0162C25.1115 24.5085 24.6685 24.9075 24.1236 24.9075C23.5787 24.9075 23.1358 24.5085 23.1358 24.0162C23.1358 23.5238 23.5787 23.1237 24.1236 23.1237Z" stroke="#393F42" stroke-width="1.5" stroke-linecap="round" stroke-linejoin="round"/>
<path d="M3.56055 3.79166L6.24637 4.21166L7.48986 17.5968C7.59058 18.6877 8.59905 19.5253 9.81026 19.5253H23.9005C25.0575 19.5253 26.0388 18.7577 26.2054 17.7217L27.4308 10.0707C27.5819 9.12682 26.7723 8.28216 25.7173 8.28216H6.67765" stroke="#393F42" stroke-width="1.5" stroke-linecap="round" stroke-linejoin="round"/>
<path d="M18.2493 12.5942H21.83" stroke="#393F42" stroke-width="1.5" stroke-linecap="round" stroke-linejoin="round"/>
</svg>
